<?xml version="1.0" encoding="utf-8"?>
<!-- Generator: Adobe Illustrator 22.0.0, SVG Export Plug-In . SVG Version: 6.00 Build 0)  -->
<svg version="1.1" id="Layer_1" xmlns="http://www.w3.org/2000/svg" xmlns:xlink="http://www.w3.org/1999/xlink" x="0px" y="0px"
	 viewBox="0 0 198.6 197.3" enable-background="new 0 0 198.6 197.3" xml:space="preserve">
<g>
	<g>
		<path fill="#743C6F" d="M105.6-1.4c1.3,0,2.7,0,4,0c0.4,2.3,2.3,1.6,3.6,1.7c13.2,1.7,25.5,6.2,36.9,13
			c38.7,23.2,57,69.6,43.9,113.6c-5.9,19.7-16.8,36-32.9,48.9c-14.9,12-31.8,19-50.9,21.1c-1.3,0.1-3.2-0.6-3.6,1.7c-5,0-10,0-15,0
			c-0.3-2.7-2.5-1.6-3.9-1.8c-10.9-1.2-21.1-4.4-30.9-9.1C21,170.6-2.4,132,1.4,90.3C4.2,59.8,18,35.6,42.6,17.7
			C55.5,8.3,69.9,2.6,85.7,0.4c1.1-0.2,2.9,0.4,2.8-1.8c1.7,0,3.3,0,5,0C96.8,0.1,102.4,0.1,105.6-1.4z M102.4,95.7
			c0.5-0.1,1-0.1,1.5-0.2c9.6,5.7,19.8,10.2,30.7,12.7c20.2,4.6,38.6,1.1,55.2-11.5c2.3-1.8,3.6-3.6,3-6.7
			c-1.5-6.8-2.1-13.9-4.2-20.5c-8.3-25.2-24.2-44.4-48.3-55.7c-34.4-16-67.4-12.5-97.8,10.1C22.8,38.7,11.5,58.9,7.1,83
			c-2,10.7-1.2,12.4,8.2,18c18.5,11.1,37.9,11.7,57.7,4.8c8.2-2.9,15.8-7.4,23.7-11.1c0.7,1.3,1.3,2.7,2,4c-1.6-1.4-2.4-0.4-3.3,1
			c-2.5,3.5-5.2,6.8-7.8,10.2c-1.7-0.7-3.3-1.6-5-1.9c-7.9-1.5-12.1,5.1-10.1,11c0.7,2,1.5,4,2.2,6c-2.5-0.7-3.5,1.5-4.9,2.6
			c-3.3,2.7-3.2,2.6-6.8,0.5c-2.7-1.6-5.6-3.1-8.6-3.9c-5.1-1.5-10.1,1.7-11.5,6.9c-1.1,4.1,1.6,8.2,6.3,9.9
			c5.1,1.9,9.4-0.4,13.7-2.7c1.6-0.9,3.2-1.7,4.7-2.6c3.9,2.3,7.9,4.6,11.8,6.9c-4.1,1.1-5.3,4.8-6.4,8.1c-1.3,3.6-1,7.3,2,10.1
			c2.9,2.7,6.3,3.6,10.1,2.2c3.5-1.4,7-2.9,10.5-4.4c-0.9,2.5-2,4.9-2.7,7.4c-0.9,3.1-1.8,6.4-2,9.6c-0.2,3.9,2.2,6.5,5.9,7.6
			c7.8,2.2,14.6-4.1,12.3-12.1c-1.3-4.6-4.2-8.8-6.4-13.2c3.6,1.7,7.1,3.5,10.7,5c4.6,1.9,8.9,0.9,12.4-2.6
			c3.3-3.3,3.8-8.4,1.1-12.9c-1.7-2.8-4.2-5.1-6.4-7.6c1.5-0.6,3.1-1,4.5-1.7c2.2-1.1,4.3-2.4,6.4-3.5c2.2,1.6,3.9,3.3,5.9,4.4
			c2.6,1.3,5.4,2.7,8.3,3c3.9,0.4,7.1-1.5,8.8-5.2c1.5-3.4,0.9-6.6-1.6-9.2c-2.6-2.8-5.8-4.5-9.8-3c-2.3,0.9-4.5,2-6.9,2.9
			c-1.8,0.6-3.8,1-5.6,1.4c-2-2.3-4-4.6-6-7c3-2.9,3.7-6,2.4-9.2c-1.3-3.3-3.9-5.2-7.3-4.9c-2.7,0.2-5.4,1.3-8,2
			c-0.6-1-1.1-2-1.8-2.9C107.4,103,104.9,99.3,102.4,95.7z"/>
		<path fill="#FCFBFC" d="M130.6,128.6c1.9-0.5,3.8-0.8,5.6-1.4c2.3-0.8,4.5-2,6.9-2.9c4-1.5,7.2,0.1,9.8,3c2.4,2.7,3.1,5.9,1.6,9.2
			c-1.7,3.7-5,5.6-8.8,5.2c-2.8-0.3-5.7-1.7-8.3-3c-2-1-3.7-2.7-5.9-4.4c-2.1,1.2-4.2,2.4-6.4,3.5c-1.4,0.7-3,1.2-4.5,1.7
			c-0.7-0.7-1.3-1.3-2-2c0.6-0.5,1-1.1,1.7-1.5c2.7-1.9,5.5-3.7,8.3-5.5C129.2,130,129.9,129.3,130.6,128.6z M134.9,132.2
			c2.6,1.7,4.2,3.2,6.2,4c1.9,0.8,4.1,1.2,6.2,1.2c1.9,0,3.4-1.4,3.6-3.5c0.3-1.9-0.2-3.9-2-4.7c-1.5-0.7-3.6-1.1-5.1-0.7
			C140.9,129.2,138.3,130.7,134.9,132.2z"/>
		<path fill="#FBFBFB" d="M95.6,158.5c-3.5,1.5-7,3-10.5,4.4c-3.8,1.5-7.2,0.5-10.1-2.2c-3.1-2.8-3.3-6.6-2-10.1
			c1.2-3.3,2.3-7,6.4-8.1c0.4,0.4,0.8,0.8,1.2,1.2c-1,2-2,4.1-3,6.1c-1.2,2.5-2,5.1-0.1,7.5c1.8,2.2,4.4,2.1,6.9,1.4
			c4.7-1.3,8.9-3.4,12.2-7.1c0.6-0.7,1.3-1.3,1.9-2c2.7,0.7,3.5-1.8,5-3c3.6-2.3,7.2-4.6,10.8-6.9c0.7,0.9,1.4,1.9,2.1,2.8
			c-1.3,1.4-2.5,2.9-4,4c-2.9,2.1-5.9,4-8.9,6c-1,1-2,2.1-3.1,3.1C98.9,156.6,97.3,157.5,95.6,158.5z"/>
		<path fill="#FCFBFC" d="M67.6,135.6c-1.6,0.9-3.2,1.7-4.7,2.6c-4.3,2.3-8.6,4.6-13.7,2.7c-4.7-1.7-7.4-5.9-6.3-9.9
			c1.4-5.2,6.4-8.4,11.5-6.9c3,0.9,5.9,2.4,8.6,3.9c3.6,2.1,3.5,2.2,6.8-0.5c1.5-1.2,2.4-3.4,4.9-2.6c0.6,0.9,1.3,1.7,1.9,2.6
			c-2,1.7-4.1,3.5-6.1,5.2C69.5,133.6,68.5,134.6,67.6,135.6z M62.9,133.7c-3-3.5-6-5-9.5-5.7c-3.4-0.7-6.3,1.4-6.6,4.5
			c-0.2,2.3,2.3,4.6,5.3,4.9c1,0.1,2,0,2.9-0.4C57.5,136.1,59.9,135,62.9,133.7z"/>
		<path fill="#FBFAFB" d="M95.6,158.5c1.6-1,3.3-1.9,4.9-2.9c0.7,0.7,1.4,1.4,2.2,2.1c2.2,4.4,5.1,8.6,6.4,13.2
			c2.3,8-4.6,14.4-12.3,12.1c-3.7-1.1-6.1-3.7-5.9-7.6c0.2-3.2,1.1-6.4,2-9.6C93.6,163.4,94.7,161,95.6,158.5z M100.6,160.8
			c-0.4,0.1-0.8,0.1-1.3,0.2c-1.5,4-3.2,8-4.4,12.1c-0.9,3.4,0.9,5.8,3.9,6.3c3,0.5,5.6-1.1,6.3-4.3c0.2-1.1,0.3-2.4,0-3.4
			C103.7,168,102.1,164.4,100.6,160.8z"/>
		<path fill="#FCFBFC" d="M102.7,157.7c-0.7-0.7-1.4-1.4-2.2-2.1c1-1,2-2.1,3.1-3.1c4,2.2,8,4.7,12.1,6.6c2.7,1.2,5.3,0.1,7.2-2
			c1.9-2.1,2.2-4.7,0.7-7.4c-1.7-3.1-3.9-5.7-7.1-7.3c-0.7-0.9-1.4-1.9-2.1-2.8c0.4-1.1,0.8-2.1,1.1-3.2c1,0.4,2,0.7,3,1.1
			c0.7,0.7,1.3,1.3,2,2c2.1,2.5,4.7,4.8,6.4,7.6c2.7,4.5,2.2,9.6-1.1,12.9c-3.5,3.5-7.7,4.5-12.4,2.6
			C109.8,161.2,106.3,159.4,102.7,157.7z"/>
		<path fill="#FAF9FA" d="M76.6,127.4c-0.6-0.9-1.3-1.7-1.9-2.6c-0.7-2-1.6-4-2.2-6c-2-5.8,2.2-12.5,10.1-11c1.7,0.3,3.4,1.3,5,1.9
			c-0.6,0.9-1.2,1.8-1.8,2.8c-1-0.2-1.9-0.4-2.9-0.5c-5.5-1-7.9,1.7-6.1,6.9c0.3,1,1.3,1.8,1.9,2.7c0.3,0.3,0.6,0.7,0.9,1
			c0.9,1.5,1.9,3,2.8,4.5c1.1,2.1,2.2,4.2,3.3,6.3c-0.7,0.7-1.4,1.4-2.1,2.1C81.2,132.9,78.9,130.2,76.6,127.4z"/>
		<path fill="#FAF9FA" d="M111.6,109.5c2.7-0.7,5.3-1.9,8-2c3.4-0.2,6,1.6,7.3,4.9c1.3,3.3,0.5,6.3-2.4,9.2c-0.6-0.7-1.2-1.3-1.8-2
			c0.2-1,0.3-1.9,0.5-2.9c0.6-3.6-1.6-6-5.1-5.2c-1.3,0.3-2.5,1.4-3.8,2.1c-0.6,0.6-1.2,1.3-1.8,1.9c-2,1.5-4,3.2-6.1,4.6
			c-1.3,0.9-2.7,1.6-4,2.4c-0.6-0.7-1.3-1.3-1.9-2c0.5-0.7,1-1.4,1.5-2.1c2.1-2.3,5.4-3.5,6.4-6.9
			C109.5,111,110.6,110.2,111.6,109.5z"/>
		<path fill="#FAF8FA" d="M67.6,135.6c1-1,1.9-2,2.9-3c4,2,8,4,12,6c1.9,0.7,3.6,2.7,5.9,1c0.8,1.3,1.6,2.6,2.4,3.8
			c0.2,0.4,0.5,0.7,0.7,1.1c0.3,0.3,0.7,0.6,1,0.9c0.3,0,0.6-0.1,1-0.1c1.7,1.4,3.3,2.8,5,4.1c-0.6,0.7-1.3,1.3-1.9,2
			c-3.9-2-7.8-4-11.7-6c-1.4-0.7-2.9-1.2-4.3-1.8c-0.4-0.4-0.8-0.8-1.2-1.2C75.4,140.3,71.5,137.9,67.6,135.6z"/>
		<path fill="#FAF9FA" d="M79.6,122.6c-0.3-0.3-0.6-0.7-0.9-1c0.5-1.1,0.8-2.4,1.6-3.3c1.7-2,3.6-3.8,5.5-5.7
			c0.6-0.9,1.2-1.8,1.8-2.8c2.6-3.4,5.3-6.7,7.8-10.2c1-1.3,1.7-2.4,3.3-1l-0.2-0.1c0.8,1.8,0.5,3.4-0.6,5
			c-2.5,3.6-4.9,7.4-7.4,11.1c-0.3,0.3-0.6,0.6-0.8,0.9c-2.1,1.8-4.2,3.6-6.4,5.3C82.2,121.7,80.8,122.1,79.6,122.6z"/>
		<path fill="#F8F6F8" d="M122.7,119.7c0.6,0.7,1.2,1.3,1.8,2c2,2.3,4,4.6,6,7c-0.7,0.7-1.4,1.4-2,2c-1.3-0.9-2.6-1.9-4-2.7
			c-0.9-0.6-2-0.9-3-1.3c-0.6-0.7-1.3-1.3-1.9-2c-0.6-1.1-1-2.3-1.8-3.3c-1.7-2-3.5-3.9-5.3-5.8c0.6-0.6,1.2-1.3,1.8-1.9
			c1.3,0.8,2.7,1.4,4,2.4C119.9,117.1,121.3,118.5,122.7,119.7z"/>
		<path fill="#F9F7F9" d="M111.6,109.5c-1,0.7-2.1,1.4-3.1,2.1c-3.3-4.4-6.6-8.7-10-13.1l0.2,0.1c-0.7-1.3-1.3-2.7-2-4
			c0,0-0.1,0.1-0.1,0.1c1-0.8,2-1.6,2.9-2.4c-0.4-0.9-0.7-1.8-1.1-2.6c0.7,0.3,1.5,0.7,2.2,1c-0.7,2.1,0.2,3.7,1.7,5
			c2.5,3.6,5,7.3,7.5,11C110.5,107.6,111,108.6,111.6,109.5z"/>
		<path fill="#794474" d="M102.4,95.7c-1.5-1.4-2.5-2.9-1.7-5c2.7-4,5.4-8,8.1-12c1.3,0,2.7,0.1,4,0.1c-2.1,3.9-4.3,7.7-6.4,11.6
			c-0.9,1.7-1.7,3.4-2.5,5.1C103.4,95.6,102.9,95.6,102.4,95.7z"/>
		<path fill="#753E70" d="M112.8,78.8c-1.3,0-2.7-0.1-4-0.1c-1.5-1-3-2-4.4-3c-3.2-2.4-4.2-7.7-2.2-11.2c1.8-3.2,4.9-3.9,9.5-2.1
			c0.3,0.1,0.6,0.2,0.9,0.4c3.3,3.1,4,6.8,2.4,11.6c5.6,0.4,10.2-0.9,15.4-3.2c-2-5.1-3.8-9.7-5.7-14.4c-1.3,3.2-3.5,4.3-6,4.7
			c-1.6,0.3-3.3,0-4.9,0c-2.9-2.5-5.8-5.1-4.1-9.4c0.6-1.6,1.9-2.9,2.9-4.4c4.3-1.6,8.2-1.1,11.8,1.9c0.7,1.1,1.5,2.1,2.2,3.2
			c3.5,5.3,6.2,10.9,7.2,17.2c0.6,3.5,0.1,4.4-3.1,5.7C125,77.9,119,79,112.8,78.8z M122.2,55.1c-0.5-2.6-2-4.3-4.6-4.2
			c-1.3,0.1-2.9,0.9-3.6,2c-0.5,0.7-0.1,2.9,0.6,3.5c1,0.8,2.7,1.1,4,0.9C119.7,57.1,120.7,56,122.2,55.1z M112.1,73.4
			c-0.2-1-0.5-1.8-0.6-2.6c-0.1-0.8,0.1-1.7-0.1-2.5c-0.5-2-2.9-3.4-4.6-2.8c-1.7,0.6-2.4,3.1-1.3,5.1
			C106.9,73.1,109,74.1,112.1,73.4z"/>
		<path fill="#753E70" d="M126.6,52.7c-0.7-1.1-1.5-2.1-2.2-3.2c3-3.6,5-7.6,6-12.6c-6.2-2-12.3-3.9-18.9-3c-2,1.1-4.2,1.8-5.9,3.3
			c-1.7,1.5-1.4,4.2,0.1,5.2c1.5,1,4.1,0.4,5.2-1.4c0.4-0.7,0.8-1.5,0.8-2.3c0.1-1.3-0.1-2.6-0.2-4c1.3,0,2.5,0,3.6,0
			c1.5,5.2-0.3,8.8-3.9,11.7c-3.5,0.7-7,0.8-9.8-1.9c-2.2-7-0.6-10.8,6-13.9c0.7-0.3,1.3-0.7,1.9-1.1c0.7-0.3,1.4-0.7,2.1-1
			c1.3,0.4,2.6,0.8,4,1.1c5.2,1.1,10.4,1.8,15.5,3.2c3.4,0.9,4.4,2.4,3.3,5.5c-1.7,4.8-4.1,9.4-6.3,14
			C127.9,52.7,127.1,52.6,126.6,52.7z"/>
		<path fill="#753F71" d="M111.6,28.6c-0.7,0.3-1.4,0.7-2.1,1c-0.6-0.4-1.4-0.6-1.8-1.2c-2.6-3.3-5.2-6.7-7.9-10.3
			c-4.7,4-8.9,7.5-11.2,12.9c6,0.2,8.6,2.7,9.9,9.4c-1.8,5.6-3,6.6-9.7,7c-4.5-2.2-6-5.9-5.6-10.6c0.1-1.3,0.2-2.6,0.3-4
			c0-0.5,0-1.1,0-1.6c2.9-6.1,7.2-11,12.2-15.4c3.3-2.9,4.5-2.9,7.5,0.4c2.9,3.2,5.5,6.6,8.2,9.9C111.7,26.8,111.5,27.8,111.6,28.6z
			 M87.5,34.3c-0.4,0.3-0.8,0.6-1.2,0.9c0.4,2,0.6,4,1.2,5.9c0.6,1.8,2.2,2.6,4,2.1c1-0.3,2.4-1.3,2.4-2.1c0-1.5-0.3-3.4-1.3-4.4
			C91.3,35.5,89.2,35,87.5,34.3z"/>
		<path fill="#763F71" d="M83.4,31.3c0,0.5,0,1.1,0,1.6c-2,0.8-3.8,1.9-6.2,1.8c-2.8-0.1-5.5,0.9-8.5,1.4c0,5.8,3,10.3,5.3,15.1
			c4.1-3.8,8.4-5.6,13.5-2.6c3.2,5.2,3,7.2-0.9,12.1c-3.8,1.5-7.4,1.3-10.8-1.3c-0.6-0.4-1.5-0.4-2.2-0.7c-0.6-1-1.2-2.1-1.8-3.1
			c-3.3-5.7-6.1-11.6-6.7-18.3c-0.2-2.3,0.1-4.3,2.2-4.7c4.7-1,9.6-1.5,14.5-2.2C82.3,30.4,82.9,31,83.4,31.3z M76,54.7
			c2.5,1.2,4.1,2.4,5.9,2.7c1,0.2,2.6-0.8,3.2-1.7c0.5-0.7,0.4-2.5-0.2-3.1c-0.8-0.8-2.5-1.4-3.5-1.1C79.8,52,78.4,53.3,76,54.7z"/>
		<path fill="#763F71" d="M98.4,89.7c0.3,0.9,0.7,1.7,1.1,2.6c-1,0.8-2,1.6-2.9,2.4c-3.3-5-6.7-10-10.1-15c-0.5-0.8-1.2-1.4-1.9-2.1
			c-0.4-1.1-0.7-2.1-1.1-3.2c-0.6-4.9-0.6-9.6,4-12.9c0.5-0.1,1-0.1,1.5-0.2c5-0.5,7.5,0.8,8.8,4.5c1.4,4-0.1,8-3.8,10.3
			c-1.1,0.7-2.3,1.2-3.8,2.1C93,82.2,95.7,85.9,98.4,89.7z M88.7,75.8c1.3-1.2,2.7-2.5,4-3.7c1.7-1.6,2.1-3.6,0.8-5.4
			c-0.6-0.8-2.3-1.4-3.4-1.2c-2.1,0.3-2.9,2.1-3,4c-0.1,0.8,0,1.7,0.3,2.5C87.9,73.4,88.4,74.8,88.7,75.8z"/>
		<path fill="#774173" d="M83.5,74.5c0.4,1.1,0.7,2.1,1.1,3.2c-0.9,0.3-1.8,1-2.5,0.8c-4.5-0.8-9-1.8-13.5-2.8
			c-2.6-0.6-3.4-2.3-3.2-4.8c0.6-5.7,2.9-10.7,6.4-15.3c0.6,1,1.2,2.1,1.8,3.1c-1.5,4.1-3,8.2-4.5,12.4
			C74.1,73.6,78.7,74.5,83.5,74.5z"/>
		<path fill="#764072" d="M134.9,132.2c3.4-1.5,6-3,8.8-3.8c1.5-0.4,3.6,0.1,5.1,0.7c1.8,0.8,2.3,2.8,2,4.7
			c-0.3,2.1-1.7,3.5-3.6,3.5c-2.1,0-4.2-0.4-6.2-1.2C139.1,135.4,137.5,134,134.9,132.2z"/>
		<path fill="#784374" d="M121.5,126.6c1,0.4,2.1,0.7,3,1.3c1.4,0.8,2.7,1.8,4,2.7c-2.8,1.8-5.6,3.6-8.3,5.5c-0.6,0.4-1.1,1-1.7,1.5
			c-1-0.4-2-0.7-3-1.1c0.4-0.8,0.7-1.7,1.1-2.4C118.3,131.6,119.9,129.1,121.5,126.6z"/>
		<path fill="#743D70" d="M98.6,149.6c-1.7-1.4-3.3-2.8-5-4.1c0-0.3,0-0.5,0-0.8c-0.4-0.4-0.7-0.7-1.1-1.1c-0.3-0.1-0.7-0.1-1-0.2
			c-0.2,0-0.4,0-0.6,0.1c-0.8-1.3-1.6-2.6-2.4-3.8c0.8-1.5,1.3-3.3,2.5-4.5c2.7-3,5.8-5.8,8.7-8.7c1.8,1.6,3.6,3.1,5.5,4.7
			c1.8,1.5,3.7,3,5.6,4.4c-1.1,1.8-2.3,3.5-3.4,5.3c-1.2,1.9-2.4,3.8-3.6,5.8C102,147.8,101.2,150.3,98.6,149.6z"/>
		<path fill="#753E70" d="M116.5,142.5c3.3,1.6,5.5,4.1,7.1,7.3c1.4,2.7,1.2,5.3-0.7,7.4c-1.9,2.1-4.5,3.2-7.2,2
			c-4.2-2-8.1-4.4-12.1-6.6c3-2,6-3.8,8.9-6C114,145.4,115.2,143.9,116.5,142.5z"/>
		<path fill="#753E70" d="M80.6,143.8c1.5,0.6,2.9,1.1,4.3,1.8c3.9,2,7.8,4,11.7,6c-3.3,3.7-7.5,5.8-12.2,7.1
			c-2.5,0.7-5.1,0.9-6.9-1.4c-2-2.4-1.2-5,0.1-7.5C78.6,147.9,79.6,145.8,80.6,143.8z"/>
		<path fill="#F8F7F8" d="M103.6,146.7c1.2-1.9,2.4-3.8,3.6-5.8c1.1-1.8,2.3-3.6,3.4-5.3c0-1.4,0.1-2.9,0.1-4.3
			c0.5,0.6,1,1.1,1.5,1.6c2.5-2.7,4.9-5.5,7.4-8.2c0.6,0.7,1.3,1.3,1.9,2c-1.6,2.5-3.3,5-4.8,7.5c-0.5,0.8-0.8,1.6-1.1,2.4
			c-0.4,1.1-0.8,2.1-1.1,3.2C110.8,142,107.2,144.3,103.6,146.7z"/>
		<path fill="#774072" d="M62.9,133.7c-3,1.3-5.4,2.4-7.8,3.3c-0.9,0.3-2,0.4-2.9,0.4c-3-0.2-5.5-2.6-5.3-4.9c0.2-3,3.1-5.1,6.6-4.5
			C56.8,128.7,59.9,130.3,62.9,133.7z"/>
		<path fill="#794475" d="M82.5,138.6c-4-2-8-4-12-6c2-1.7,4.1-3.5,6.1-5.2c2.3,2.7,4.6,5.5,7,8.2C83.2,136.6,82.8,137.6,82.5,138.6
			z"/>
		<path fill="#764071" d="M100.6,160.8c1.5,3.6,3.1,7.3,4.5,10.9c0.4,1,0.3,2.3,0,3.4c-0.7,3.1-3.3,4.8-6.3,4.3
			c-3.1-0.5-4.9-3-3.9-6.3c1.1-4.1,2.9-8.1,4.4-12.1C99.7,160.9,100.2,160.8,100.6,160.8z"/>
		<path fill="#753F71" d="M79.6,122.6c1.3-0.6,2.7-1,3.8-1.8c2.2-1.6,4.3-3.5,6.4-5.3c0.6,0.9,1.1,1.9,1.8,2.7c2,2.2,4,4.3,6,6.4
			c-1.3,0.6-2.7,1-3.7,1.9c-2.8,2.2-5.5,4.6-8.2,7c-1.1-2.1-2.1-4.3-3.3-6.3C81.5,125.6,80.5,124.2,79.6,122.6z"/>
		<path fill="#F7F5F7" d="M85.6,133.5c2.7-2.3,5.4-4.7,8.2-7c1.1-0.8,2.5-1.3,3.7-1.9c0.7,0.6,1.3,1.2,2,1.7
			c-2.9,2.9-5.9,5.7-8.7,8.7c-1.1,1.2-1.7,3-2.5,4.5c-2.3,1.7-4-0.3-5.9-1c0.3-1,0.7-2,1-3C84.2,134.9,84.9,134.2,85.6,133.5z"/>
		<path fill="#7A4776" d="M85.7,112.6c-1.8,1.9-3.8,3.7-5.5,5.7c-0.8,0.9-1.1,2.2-1.6,3.3c-0.7-0.9-1.6-1.7-1.9-2.7
			c-1.8-5.2,0.7-7.9,6.1-6.9C83.8,112.3,84.8,112.4,85.7,112.6z"/>
		<path fill="#753E70" d="M98.5,98.6c3.3,4.4,6.6,8.7,10,13.1c-0.9,3.4-4.3,4.6-6.4,6.9c-0.6,0.6-1,1.4-1.5,2.1
			c-2.4-2-4.8-3.9-7.1-6.1c-1.2-1.1-2-0.7-2.9,0.1c2.4-3.7,4.8-7.5,7.4-11.1C99,101.9,99.3,100.4,98.5,98.6z"/>
		<path fill="#763F71" d="M119.6,124.7c-2.5,2.7-5,5.5-7.4,8.2c-0.5-0.5-1-1.1-1.5-1.6c-2.7-2.9-5.5-5.8-8.2-8.6
			c1.3-0.8,2.7-1.5,4-2.4c2.1-1.5,4.1-3.1,6.1-4.6c1.8,1.9,3.6,3.8,5.3,5.8C118.6,122.3,119.1,123.6,119.6,124.7z"/>
		<path fill="#FAF9FA" d="M102.5,122.6c2.7,2.9,5.5,5.8,8.2,8.6c0,1.4-0.1,2.9-0.1,4.3c-1.9-1.5-3.7-2.9-5.6-4.4
			c-1.9-1.5-3.7-3.1-5.5-4.7c-0.7-0.6-1.3-1.2-2-1.7c-2-2.1-4.1-4.2-6-6.4c-0.7-0.8-1.2-1.8-1.8-2.7c0.3-0.3,0.6-0.6,0.8-0.9
			c1-0.8,1.8-1.2,2.9-0.1c2.3,2.1,4.7,4,7.1,6.1C101.2,121.3,101.8,122,102.5,122.6z"/>
		<path fill="#7B4777" d="M122.7,119.7c-1.4-1.2-2.8-2.5-4.3-3.7c-1.2-0.9-2.7-1.6-4-2.4c1.2-0.7,2.4-1.8,3.8-2.1
			c3.5-0.8,5.7,1.6,5.1,5.2C123.1,117.7,122.9,118.7,122.7,119.7z"/>
		<path fill="#A990AA" d="M91.4,143.4c0.3,0.1,0.7,0.1,1,0.2c0,0.4,0.1,0.7,0.1,1.1c0,0.3,0,0.6,0,0.9c-0.3-0.3-0.7-0.6-1-0.9
			C91.5,144.2,91.5,143.8,91.4,143.4z"/>
		<path fill="#A07E9E" d="M91.4,143.4c0,0.4,0.1,0.8,0.1,1.2c-0.2-0.4-0.5-0.7-0.7-1.1C91,143.4,91.2,143.4,91.4,143.4z"/>
		<path fill="#804F7C" d="M92.6,145.6c0-0.3,0-0.6,0-0.9c0.3,0,0.7,0,1,0c0,0.3,0,0.5,0,0.8C93.3,145.5,92.9,145.5,92.6,145.6z"/>
		<path fill="#FDFDFD" d="M98.4,89.7c-2.7-3.7-5.4-7.5-8.2-11.4c1.5-0.8,2.7-1.4,3.8-2.1c3.7-2.3,5.2-6.3,3.8-10.3
			c-1.3-3.7-3.8-5-8.8-4.5c-0.5,0-1,0.1-1.5,0.2c-0.3-0.3-0.6-0.6-0.9-0.9c4-4.9,4.1-6.9,0.9-12.1c0.4-0.4,0.8-0.7,1.2-1.1
			c6.6-0.4,7.9-1.3,9.7-7c1,1.4,2.1,2.7,3.1,4.1c2.9,2.7,6.3,2.6,9.8,1.9c0.4,0.4,0.8,0.8,1.2,1.2c-1,1.4-2.3,2.8-2.9,4.4
			c-1.6,4.3,1.2,7,4.1,9.4c-0.4,0.4-0.8,0.8-1.2,1.2c-0.3-0.1-0.6-0.3-0.9-0.4c-4.6-1.8-7.7-1.1-9.5,2.1c-2,3.5-1,8.8,2.2,11.2
			c1.4,1.1,2.9,2,4.4,3c-2.7,4-5.4,8-8.1,12C99.9,90.3,99.2,90,98.4,89.7z"/>
		<path fill="#FCFCFC" d="M112.6,47.7c-0.4-0.4-0.8-0.8-1.2-1.2c3.6-3,5.4-6.6,3.9-11.7c-1.1,0-2.4,0-3.6,0c0-0.3,0-0.6-0.1-0.9
			c6.6-0.9,12.7,1,18.9,3c-1,5-3,9.1-6,12.6C120.8,46.7,116.9,46.1,112.6,47.7z"/>
		<path fill="#FCFCFC" d="M112.5,62.7c0.4-0.4,0.8-0.8,1.2-1.2c1.6,0,3.3,0.3,4.9,0c2.5-0.4,4.7-1.5,6-4.7c1.8,4.6,3.7,9.3,5.7,14.4
			c-5.2,2.3-9.9,3.6-15.4,3.2C116.5,69.5,115.9,65.8,112.5,62.7z"/>
		<path fill="#F6F4F6" d="M122.2,55.1c-1.4,0.9-2.5,1.9-3.7,2.1c-1.3,0.2-3-0.1-4-0.9c-0.7-0.6-1.1-2.7-0.6-3.5c0.7-1,2.3-1.9,3.6-2
			C120.2,50.8,121.7,52.6,122.2,55.1z"/>
		<path fill="#FBFAFB" d="M112.1,73.4c-3.1,0.7-5.2-0.3-6.6-2.7c-1.1-2-0.4-4.5,1.3-5.1c1.7-0.6,4.1,0.8,4.6,2.8
			c0.2,0.8,0,1.6,0.1,2.5C111.7,71.6,111.9,72.4,112.1,73.4z"/>
		<path fill="#FDFCFD" d="M101.5,44.6c-1-1.4-2.1-2.7-3.1-4.1c-1.3-6.7-3.9-9.3-9.9-9.4c2.3-5.4,6.5-8.9,11.2-12.9
			c2.8,3.6,5.3,7,7.9,10.3c0.4,0.5,1.2,0.8,1.8,1.2c-0.6,0.4-1.3,0.8-1.9,1.1C100.9,33.9,99.3,37.7,101.5,44.6z"/>
		<path fill="#F9F7F9" d="M111.6,33.9c0,0.3,0,0.6,0.1,0.9c0.1,1.3,0.3,2.6,0.2,4c0,0.8-0.4,1.6-0.8,2.3c-1.2,1.8-3.7,2.4-5.2,1.4
			c-1.5-1-1.8-3.7-0.1-5.2C107.3,35.7,109.6,35,111.6,33.9z"/>
		<path fill="#FBFBFB" d="M88.7,47.6c-0.4,0.4-0.8,0.7-1.2,1.1c-5.2-3-9.5-1.2-13.5,2.6c-2.3-4.7-5.2-9.2-5.3-15.1
			c2.9-0.5,5.7-1.4,8.5-1.4c2.4,0,4.2-1,6.2-1.8c-0.1,1.3-0.1,2.7-0.3,4C82.7,41.7,84.3,45.4,88.7,47.6z"/>
		<path fill="#F5F2F5" d="M87.5,34.3c1.7,0.8,3.8,1.2,5.1,2.5c1,0.9,1.3,2.9,1.3,4.4c0,0.7-1.4,1.8-2.4,2.1c-1.8,0.5-3.4-0.3-4-2.1
			c-0.6-1.9-0.8-4-1.2-5.9C86.7,34.9,87.1,34.6,87.5,34.3z"/>
		<path fill="#FBFBFB" d="M86.6,60.7c0.3,0.3,0.6,0.6,0.9,0.9c-4.6,3.3-4.6,8-4,12.9c-4.8,0-9.4-0.9-14.4-3.3
			c1.5-4.2,3-8.3,4.5-12.4c0.8,0.2,1.7,0.2,2.2,0.7C79.2,62.1,82.8,62.3,86.6,60.7z"/>
		<path fill="#F6F4F6" d="M76,54.7c2.4-1.5,3.8-2.7,5.4-3.2c1-0.3,2.7,0.3,3.5,1.1c0.6,0.6,0.7,2.4,0.2,3.1
			c-0.7,0.9-2.3,1.9-3.2,1.7C80.1,57.1,78.5,55.9,76,54.7z"/>
		<path fill="#F6F4F6" d="M88.7,75.8c-0.3-1-0.9-2.4-1.2-3.8c-0.2-0.8-0.3-1.6-0.3-2.5c0.1-2,0.9-3.8,3-4c1.1-0.1,2.8,0.4,3.4,1.2
			c1.3,1.8,0.9,3.8-0.8,5.4C91.4,73.4,90.1,74.6,88.7,75.8z"/>
		<path fill="#FDFDFD" d="M93.6,144.7c-0.3,0-0.7,0-1,0c0-0.4-0.1-0.7-0.1-1.1C92.8,143.9,93.2,144.3,93.6,144.7z"/>
	</g>
</g>
</svg>
